<svg xmlns="http://www.w3.org/2000/svg" xmlns:xlink="http://www.w3.org/1999/xlink" id="Layer_1" x="0px" y="0px" viewBox="0 0 195 83" style="enable-background:new 0 0 195 83;" xml:space="preserve"><style type="text/css">	.st0{fill:#008CFF;}</style><path class="st0" d="M147.4,20.1c0.2,2,2,3.5,4.1,3.5l23.4,0c1.3,0,2.7,0.1,3.9,0.4c4.8,1,8.9,3.7,11.8,7.5c1.7,2.3,3,5,3.5,7.9 c0.3,1.3,0.4,2.6,0.4,3.9s-0.1,2.7-0.4,3.9c-1.6,7.7-7.6,13.8-15.3,15.3c-1.3,0.3-2.6,0.4-3.9,0.4h-43.2V47.2l43.1,0 c2.1,0,3.9-1.5,4.1-3.5c0.2-2.3-1.6-4.3-3.9-4.3h-23.6c-1.3,0-2.7-0.1-3.9-0.4c-4.8-1-9-3.7-11.8-7.5c-1.7-2.3-2.9-5-3.5-7.9 c-0.3-1.3-0.4-2.6-0.4-3.9c0-1.3,0.1-2.7,0.4-3.9C133.6,8,139.7,2,147.4,0.4c1.3-0.3,2.6-0.4,3.9-0.4h43.2v0c0,8.7-7,15.7-15.7,15.7 h-27.5C149,15.7,147.2,17.7,147.4,20.1z M129.7,31.4c0,5.7-1.5,11.1-4.2,15.7c-2.8,4.8-6.7,8.8-11.5,11.5c-4.6,2.7-10,4.2-15.7,4.2 H66.8V0h31.4c5.7,0,11.1,1.5,15.7,4.2c4.8,2.8,8.8,6.7,11.5,11.5C128.2,20.3,129.7,25.7,129.7,31.4z M114,31.4 c0-8.7-7-15.7-15.7-15.7H82.5v31.4h15.7C106.9,47.2,114,40.1,114,31.4z M47.2,0v31.4c0,8.6-6.9,15.6-15.4,15.7 c-8.8,0.2-16-7.3-16-16.1l0-31H0v31.4c0,11.6,6.3,21.8,15.7,27.2c4.6,2.7,10,4.2,15.7,4.2c5.7,0,11.1-1.5,15.7-4.2 c9.4-5.4,15.7-15.6,15.7-27.2V0H47.2z M194.6,69.2h-62.9v13.6h62.9V69.2z"></path></svg>